<svg xmlns="http://www.w3.org/2000/svg" width="108" height="108" viewBox="0 0 24 24">
    <!-- Outer accent ring (White / Light) -->
    <path
        stroke="#FAF8F5"
        stroke-width="0.3"
        fill="none"
        d="M12,12m-9.5,0a9.5,9.5 0,1 1,19 0a9.5,9.5 0,1 1,-19 0" />
    <!-- Monogram 'N' (Bowl/Plate/Smile curve) (White / Light) -->
    <path
        stroke="#FAF8F5"
        stroke-width="2"
        stroke-linecap="round"
        stroke-linejoin="round"
        fill="none"
        d="M7,10L7,18M7,12C9,17 15,17 17,12M17,12L17,18" />
    <!-- Leaf (Eucalyptus/Healthy) -->
    <path
        fill="#637D6E"
        d="M12,8C10,8 9.5,10.5 10.5,12C11.5,13.5 13,13.5 13.5,12C14,10.5 14,8 12,8Z" />
    <!-- AI Sparkle (Sage Green / Emerald) -->
    <path
        fill="#637D6E"
        d="M17,5L17.4,6.6L19,7L17.4,7.4L17,9L16.6,7.4L15,7L16.6,6.6Z" />
</svg>
